<svg xmlns="http://www.w3.org/2000/svg" width="1200" height="720" viewBox="0 0 1200 720" role="img" aria-label="斗地主结算预览">
<defs><linearGradient id="felt" x1="0" y1="0" x2="1" y2="1"><stop stop-color="#145b45"/><stop offset="1" stop-color="#062721"/></linearGradient><linearGradient id="gold" x1="0" y1="0" x2="1" y2="1"><stop stop-color="#ffe08a"/><stop offset="1" stop-color="#b8721d"/></linearGradient><filter id="shadow" x="-20%" y="-20%" width="140%" height="140%"><feDropShadow dx="0" dy="10" stdDeviation="10" flood-opacity=".3"/></filter></defs><rect width="1200" height="720" fill="#062721"/><rect x="170" y="95" width="860" height="530" rx="36" fill="#113c33" stroke="#d9a54b" stroke-width="5" filter="url(#shadow)"/>
<path d="M270 155h660l-60 82H330z" fill="url(#gold)"/><text x="600" y="209" text-anchor="middle" font-size="54" font-weight="900" fill="#512b0c">胜利结算</text>
<g transform="translate(285 305)"><circle r="54" fill="#b8791f" stroke="#ffe2a0" stroke-width="5"/><text y="14" text-anchor="middle" font-size="44" fill="#fff8dc">冠</text></g><text x="365" y="305" font-size="30" fill="#f9e6bd">地主 Frank +120</text><text x="365" y="350" font-size="22" fill="#b9d8cd">底分 15 · 炸弹 x2 · 春天 x2 · 超级加倍 x4</text>
<g transform="translate(300 430)"><path d="M60 4l13 36 38-11-22 34 34 18-40 7 3 40-26-30-26 30 3-40-40-7 34-18-22-34 38 11z" fill="#d63b2e" stroke="#ffe8a8" stroke-width="4"/><text x="150" y="62" font-size="26" fill="#ffe5a0">炸弹 + 春天奖励已点亮</text></g>
<rect x="760" y="470" width="170" height="62" rx="31" fill="url(#gold)"/><text x="845" y="510" text-anchor="middle" font-size="26" font-weight="900" fill="#42240a">再来一局</text>
</svg>
