<svg xmlns="http://www.w3.org/2000/svg" width="180" height="252" viewBox="0 0 180 252" role="img" aria-label="斗地主牌背青金龙纹">
<defs>
  <linearGradient id="ivory" x1="0" y1="0" x2="1" y2="1"><stop stop-color="#fff8ea"/><stop offset="1" stop-color="#f1dfbd"/></linearGradient>
  <linearGradient id="gold" x1="0" y1="0" x2="1" y2="1"><stop stop-color="#ffd976"/><stop offset="1" stop-color="#b87420"/></linearGradient>
  <linearGradient id="greenfelt" x1="0" y1="0" x2="1" y2="1"><stop stop-color="#116344"/><stop offset="1" stop-color="#082f28"/></linearGradient>
  <filter id="softShadow" x="-20%" y="-20%" width="140%" height="140%"><feDropShadow dx="0" dy="7" stdDeviation="6" flood-color="#081713" flood-opacity=".28"/></filter>
</defs>
<rect x="6" y="6" width="168" height="240" rx="18" fill="#092f3b" stroke="#e0b458" stroke-width="4" filter="url(#softShadow)"/>
<rect x="18" y="18" width="144" height="216" rx="12" fill="url(#greenfelt)" stroke="#f4d27a" stroke-width="2"/>
<path d="M48 126c18-52 83-62 85-13 2 39-53 37-51 5 1-17 26-18 31-4" fill="none" stroke="#f4cf67" stroke-width="12" stroke-linecap="round"/>
<path d="M63 102l-22-17 31 1M121 92l23-18-9 30M83 149l-19 25 34-12" fill="none" stroke="#ffefaa" stroke-width="7" stroke-linecap="round" stroke-linejoin="round"/>
<circle cx="90" cy="126" r="48" fill="none" stroke="#c3862d" stroke-width="2" stroke-dasharray="6 8"/>
<text x="90" y="222" text-anchor="middle" font-family="Georgia, serif" font-size="18" fill="#ffe6a0" letter-spacing="4">DOU DIZHU</text>
</svg>
