<svg xmlns="http://www.w3.org/2000/svg" width="780" height="260" viewBox="0 0 780 260" role="img" aria-label="扑克牌选中可出不可出已出状态规范">
<defs>
  <linearGradient id="ivory" x1="0" y1="0" x2="1" y2="1"><stop stop-color="#fff8ea"/><stop offset="1" stop-color="#f1dfbd"/></linearGradient>
  <linearGradient id="gold" x1="0" y1="0" x2="1" y2="1"><stop stop-color="#ffd976"/><stop offset="1" stop-color="#b87420"/></linearGradient>
  <linearGradient id="greenfelt" x1="0" y1="0" x2="1" y2="1"><stop stop-color="#116344"/><stop offset="1" stop-color="#082f28"/></linearGradient>
  <filter id="softShadow" x="-20%" y="-20%" width="140%" height="140%"><feDropShadow dx="0" dy="7" stdDeviation="6" flood-color="#081713" flood-opacity=".28"/></filter>
</defs>
<rect width="780" height="260" rx="24" fill="#0b3129"/>
<g transform="translate(35 28)"><rect width="132" height="184" rx="15" fill="url(#ivory)" stroke="#d7ae54" stroke-width="3"/><text x="66" y="212" text-anchor="middle" fill="#f6e8c8" font-size="18">默认</text><text x="25" y="50" font-size="30" font-weight="800" fill="#222">9</text><text x="66" y="116" text-anchor="middle" font-size="58" fill="#222">♣</text></g>
<g transform="translate(220 8)"><rect width="132" height="184" rx="15" fill="url(#ivory)" stroke="#ffe17a" stroke-width="5"/><rect x="-8" y="-8" width="148" height="200" rx="20" fill="none" stroke="#ffe17a" stroke-width="4" stroke-dasharray="10 8"/><text x="66" y="232" text-anchor="middle" fill="#f6e8c8" font-size="18">选中：上浮 20px + 金框</text><text x="25" y="50" font-size="30" font-weight="800" fill="#b42028">K</text><text x="66" y="116" text-anchor="middle" font-size="58" fill="#b42028">♦</text></g>
<g transform="translate(435 28)"><rect width="132" height="184" rx="15" fill="url(#ivory)" stroke="#3be08e" stroke-width="5"/><path d="M16 156h100" stroke="#3be08e" stroke-width="8" stroke-linecap="round"/><text x="66" y="212" text-anchor="middle" fill="#f6e8c8" font-size="18">可出：绿边 + 底部光条</text><text x="25" y="50" font-size="30" font-weight="800" fill="#222">2</text><text x="66" y="116" text-anchor="middle" font-size="58" fill="#222">♠</text></g>
<g transform="translate(620 28)" opacity=".58"><rect width="132" height="184" rx="15" fill="#d7d0c1" stroke="#737373" stroke-width="3"/><rect width="132" height="184" rx="15" fill="#1d2527" opacity=".38"/><path d="M25 144l82-82" stroke="#f2f2f2" stroke-width="8" stroke-linecap="round"/><text x="66" y="212" text-anchor="middle" fill="#f6e8c8" font-size="18">不可出/已出：降饱和遮罩</text><text x="25" y="50" font-size="30" font-weight="800" fill="#555">7</text><text x="66" y="116" text-anchor="middle" font-size="58" fill="#555">♥</text></g>
</svg>
